<svg width="355" height="44" viewBox="0 0 355 44" fill="none" xmlns="http://www.w3.org/2000/svg" font-family="-apple-system, SF Pro Display, Segoe UI, Roboto, Helvetica, Arial, sans-serif"><rect x="1" y="1" width="353" height="42" rx="12" fill="#0f1830" stroke="#243554" stroke-width="1.4"/><line x1="135.9" y1="13" x2="135.9" y2="31" stroke="#243554" stroke-width="1"/><line x1="247.6" y1="13" x2="247.6" y2="31" stroke="#243554" stroke-width="1"/><circle cx="26" cy="18" r="4" fill="none" stroke="#0A84FF" stroke-width="1.6"/><path d="M19 30 C19 24 33 24 33 30" fill="none" stroke="#0A84FF" stroke-width="1.6" stroke-linecap="round"/><text x="42" y="27" fill="#e6edf7" font-size="15" font-weight="700">7</text><text x="56.7" y="27" fill="#5a6b8c" font-size="12.5" font-weight="500">followers</text><rect x="150.95" y="13" width="14" height="17" rx="2.5" fill="none" stroke="#5E5CE6" stroke-width="1.6"/><line x1="154.95" y1="13" x2="154.95" y2="30" stroke="#5E5CE6" stroke-width="1.4"/><text x="173.9" y="27" fill="#e6edf7" font-size="15" font-weight="700">20</text><text x="197.3" y="27" fill="#5a6b8c" font-size="12.5" font-weight="500">repos</text><path d="M269.6 11 L271.8 16.3 L277.6 16.8 L273.20000000000005 20.5 L274.6 26.1 L269.6 23.1 L264.6 26.1 L266.0 20.5 L261.6 16.8 L267.40000000000003 16.3 Z" fill="none" stroke="#F05138" stroke-width="1.5" stroke-linejoin="round"/><text x="285.6" y="27" fill="#e6edf7" font-size="15" font-weight="700">8</text><text x="300.3" y="27" fill="#5a6b8c" font-size="12.5" font-weight="500">stars</text></svg>